<mxfile host="Electron" agent="Mozilla/5.0 (Windows NT 10.0; Win64; x64) AppleWebKit/537.36 (KHTML, like Gecko) draw.io/26.0.15 Chrome/132.0.6834.196 Electron/34.2.0 Safari/537.36" version="26.0.15">
  <diagram id="IJcsZCtAP3WUxC4qFdDC" name="ページ1">
    <mxGraphModel dx="1434" dy="870" grid="1" gridSize="10" guides="1" tooltips="1" connect="1" arrows="1" fold="1" page="1" pageScale="1" pageWidth="850" pageHeight="650" background="#ffffff" math="1" shadow="0">
      <root>
        <mxCell id="0" />
        <mxCell id="1" parent="0" />
        <mxCell id="PkKohfrWcFwIoGjhmuyU-45" value="" style="rounded=0;whiteSpace=wrap;html=1;strokeColor=none;" vertex="1" parent="1">
          <mxGeometry x="10" y="10" width="830" height="630" as="geometry" />
        </mxCell>
        <mxCell id="PkKohfrWcFwIoGjhmuyU-1" value="" style="endArrow=classic;html=1;rounded=0;" edge="1" parent="1">
          <mxGeometry width="50" height="50" relative="1" as="geometry">
            <mxPoint x="430" y="200" as="sourcePoint" />
            <mxPoint x="790" y="200" as="targetPoint" />
          </mxGeometry>
        </mxCell>
        <mxCell id="PkKohfrWcFwIoGjhmuyU-2" value="" style="endArrow=classic;html=1;rounded=0;" edge="1" parent="1">
          <mxGeometry width="50" height="50" relative="1" as="geometry">
            <mxPoint x="450" y="260" as="sourcePoint" />
            <mxPoint x="450" y="30" as="targetPoint" />
          </mxGeometry>
        </mxCell>
        <mxCell id="PkKohfrWcFwIoGjhmuyU-3" value="" style="endArrow=none;dashed=1;html=1;rounded=0;" edge="1" parent="1">
          <mxGeometry width="50" height="50" relative="1" as="geometry">
            <mxPoint x="610" y="260" as="sourcePoint" />
            <mxPoint x="610" y="30" as="targetPoint" />
          </mxGeometry>
        </mxCell>
        <mxCell id="PkKohfrWcFwIoGjhmuyU-4" value="" style="endArrow=none;html=1;rounded=0;strokeColor=#00CC00;strokeWidth=2;" edge="1" parent="1">
          <mxGeometry width="50" height="50" relative="1" as="geometry">
            <mxPoint x="490" y="160" as="sourcePoint" />
            <mxPoint x="730" y="240" as="targetPoint" />
          </mxGeometry>
        </mxCell>
        <mxCell id="PkKohfrWcFwIoGjhmuyU-5" value="" style="endArrow=none;html=1;rounded=0;curved=1;strokeWidth=2;strokeColor=#FF8000;" edge="1" parent="1">
          <mxGeometry width="50" height="50" relative="1" as="geometry">
            <mxPoint x="490" y="80" as="sourcePoint" />
            <mxPoint x="730" y="80" as="targetPoint" />
            <Array as="points">
              <mxPoint x="610" y="240" />
            </Array>
          </mxGeometry>
        </mxCell>
        <mxCell id="PkKohfrWcFwIoGjhmuyU-6" value="`x_0`" style="text;html=1;align=center;verticalAlign=middle;whiteSpace=wrap;rounded=0;fontSize=24;" vertex="1" parent="1">
          <mxGeometry x="580" y="260" width="60" height="30" as="geometry" />
        </mxCell>
        <mxCell id="PkKohfrWcFwIoGjhmuyU-7" value="`x`" style="text;html=1;align=center;verticalAlign=middle;whiteSpace=wrap;rounded=0;fontSize=24;" vertex="1" parent="1">
          <mxGeometry x="790" y="180" width="60" height="30" as="geometry" />
        </mxCell>
        <mxCell id="PkKohfrWcFwIoGjhmuyU-8" value="" style="endArrow=classic;html=1;rounded=0;" edge="1" parent="1">
          <mxGeometry width="50" height="50" relative="1" as="geometry">
            <mxPoint x="430" y="520" as="sourcePoint" />
            <mxPoint x="790" y="520" as="targetPoint" />
          </mxGeometry>
        </mxCell>
        <mxCell id="PkKohfrWcFwIoGjhmuyU-9" value="" style="endArrow=classic;html=1;rounded=0;" edge="1" parent="1">
          <mxGeometry width="50" height="50" relative="1" as="geometry">
            <mxPoint x="450" y="580" as="sourcePoint" />
            <mxPoint x="450" y="350" as="targetPoint" />
          </mxGeometry>
        </mxCell>
        <mxCell id="PkKohfrWcFwIoGjhmuyU-10" value="" style="endArrow=none;dashed=1;html=1;rounded=0;" edge="1" parent="1">
          <mxGeometry width="50" height="50" relative="1" as="geometry">
            <mxPoint x="610" y="580" as="sourcePoint" />
            <mxPoint x="610" y="350" as="targetPoint" />
          </mxGeometry>
        </mxCell>
        <mxCell id="PkKohfrWcFwIoGjhmuyU-11" value="" style="endArrow=none;html=1;rounded=0;strokeColor=#00CC00;strokeWidth=2;" edge="1" parent="1">
          <mxGeometry width="50" height="50" relative="1" as="geometry">
            <mxPoint x="490" y="560" as="sourcePoint" />
            <mxPoint x="730" y="480" as="targetPoint" />
          </mxGeometry>
        </mxCell>
        <mxCell id="PkKohfrWcFwIoGjhmuyU-12" value="" style="endArrow=none;html=1;rounded=0;curved=1;strokeWidth=2;strokeColor=#FF8000;" edge="1" parent="1">
          <mxGeometry width="50" height="50" relative="1" as="geometry">
            <mxPoint x="490" y="460" as="sourcePoint" />
            <mxPoint x="730" y="460" as="targetPoint" />
            <Array as="points">
              <mxPoint x="620" y="290" />
            </Array>
          </mxGeometry>
        </mxCell>
        <mxCell id="PkKohfrWcFwIoGjhmuyU-13" value="`x_0`" style="text;html=1;align=center;verticalAlign=middle;whiteSpace=wrap;rounded=0;fontSize=24;" vertex="1" parent="1">
          <mxGeometry x="580" y="580" width="60" height="30" as="geometry" />
        </mxCell>
        <mxCell id="PkKohfrWcFwIoGjhmuyU-14" value="`x`" style="text;html=1;align=center;verticalAlign=middle;whiteSpace=wrap;rounded=0;fontSize=24;" vertex="1" parent="1">
          <mxGeometry x="790" y="500" width="60" height="30" as="geometry" />
        </mxCell>
        <mxCell id="PkKohfrWcFwIoGjhmuyU-16" value="`U(x)`" style="text;html=1;align=center;verticalAlign=middle;whiteSpace=wrap;rounded=0;fontSize=24;" vertex="1" parent="1">
          <mxGeometry x="730" y="40" width="60" height="30" as="geometry" />
        </mxCell>
        <mxCell id="PkKohfrWcFwIoGjhmuyU-17" value="`F(x)`" style="text;html=1;align=center;verticalAlign=middle;whiteSpace=wrap;rounded=0;fontSize=24;" vertex="1" parent="1">
          <mxGeometry x="640" y="230" width="60" height="30" as="geometry" />
        </mxCell>
        <mxCell id="PkKohfrWcFwIoGjhmuyU-19" value="`U(x)`" style="text;html=1;align=center;verticalAlign=middle;whiteSpace=wrap;rounded=0;fontSize=24;" vertex="1" parent="1">
          <mxGeometry x="690" y="370" width="60" height="30" as="geometry" />
        </mxCell>
        <mxCell id="PkKohfrWcFwIoGjhmuyU-20" value="`F(x)`" style="text;html=1;align=center;verticalAlign=middle;whiteSpace=wrap;rounded=0;fontSize=24;" vertex="1" parent="1">
          <mxGeometry x="520" y="550" width="60" height="30" as="geometry" />
        </mxCell>
        <mxCell id="PkKohfrWcFwIoGjhmuyU-21" value="" style="endArrow=classic;html=1;rounded=0;" edge="1" parent="1">
          <mxGeometry width="50" height="50" relative="1" as="geometry">
            <mxPoint x="20" y="200" as="sourcePoint" />
            <mxPoint x="380" y="200" as="targetPoint" />
          </mxGeometry>
        </mxCell>
        <mxCell id="PkKohfrWcFwIoGjhmuyU-23" value="" style="endArrow=none;dashed=1;html=1;rounded=0;" edge="1" parent="1">
          <mxGeometry width="50" height="50" relative="1" as="geometry">
            <mxPoint x="200" y="220" as="sourcePoint" />
            <mxPoint x="200" y="20" as="targetPoint" />
          </mxGeometry>
        </mxCell>
        <mxCell id="PkKohfrWcFwIoGjhmuyU-24" value="`x_0`" style="text;html=1;align=center;verticalAlign=middle;whiteSpace=wrap;rounded=0;fontSize=24;" vertex="1" parent="1">
          <mxGeometry x="170" y="230" width="60" height="30" as="geometry" />
        </mxCell>
        <mxCell id="PkKohfrWcFwIoGjhmuyU-25" value="" style="rounded=0;whiteSpace=wrap;html=1;fillColor=#0000FF;" vertex="1" parent="1">
          <mxGeometry x="20" y="50" width="80" height="140" as="geometry" />
        </mxCell>
        <mxCell id="PkKohfrWcFwIoGjhmuyU-26" value="" style="rounded=0;whiteSpace=wrap;html=1;fillColor=#0000FF;" vertex="1" parent="1">
          <mxGeometry x="140" y="100" width="60" height="40" as="geometry" />
        </mxCell>
        <mxCell id="PkKohfrWcFwIoGjhmuyU-27" value="" style="rounded=0;whiteSpace=wrap;html=1;fillColor=#FF0000;" vertex="1" parent="1">
          <mxGeometry x="200" y="100" width="60" height="40" as="geometry" />
        </mxCell>
        <mxCell id="PkKohfrWcFwIoGjhmuyU-28" value="" style="rounded=0;whiteSpace=wrap;html=1;fillColor=#FF0000;" vertex="1" parent="1">
          <mxGeometry x="300" y="50" width="80" height="140" as="geometry" />
        </mxCell>
        <mxCell id="PkKohfrWcFwIoGjhmuyU-29" value="S" style="text;html=1;align=center;verticalAlign=middle;whiteSpace=wrap;rounded=0;fontSize=24;fontColor=#FFFFFF;" vertex="1" parent="1">
          <mxGeometry x="50" y="105" width="60" height="30" as="geometry" />
        </mxCell>
        <mxCell id="PkKohfrWcFwIoGjhmuyU-30" value="N" style="text;html=1;align=center;verticalAlign=middle;whiteSpace=wrap;rounded=0;fontSize=24;fontColor=#FFFFFF;" vertex="1" parent="1">
          <mxGeometry x="290" y="105" width="60" height="30" as="geometry" />
        </mxCell>
        <mxCell id="PkKohfrWcFwIoGjhmuyU-31" value="S" style="text;html=1;align=center;verticalAlign=middle;whiteSpace=wrap;rounded=0;fontSize=24;fontColor=#FFFFFF;" vertex="1" parent="1">
          <mxGeometry x="130" y="105" width="60" height="30" as="geometry" />
        </mxCell>
        <mxCell id="PkKohfrWcFwIoGjhmuyU-32" value="N" style="text;html=1;align=center;verticalAlign=middle;whiteSpace=wrap;rounded=0;fontSize=24;fontColor=#FFFFFF;" vertex="1" parent="1">
          <mxGeometry x="210" y="105" width="60" height="30" as="geometry" />
        </mxCell>
        <mxCell id="PkKohfrWcFwIoGjhmuyU-34" value="" style="endArrow=classic;html=1;rounded=0;" edge="1" parent="1">
          <mxGeometry width="50" height="50" relative="1" as="geometry">
            <mxPoint x="20" y="520" as="sourcePoint" />
            <mxPoint x="380" y="520" as="targetPoint" />
          </mxGeometry>
        </mxCell>
        <mxCell id="PkKohfrWcFwIoGjhmuyU-35" value="" style="endArrow=none;dashed=1;html=1;rounded=0;" edge="1" parent="1">
          <mxGeometry width="50" height="50" relative="1" as="geometry">
            <mxPoint x="200" y="540" as="sourcePoint" />
            <mxPoint x="200" y="340" as="targetPoint" />
          </mxGeometry>
        </mxCell>
        <mxCell id="PkKohfrWcFwIoGjhmuyU-36" value="`x_0`" style="text;html=1;align=center;verticalAlign=middle;whiteSpace=wrap;rounded=0;fontSize=24;" vertex="1" parent="1">
          <mxGeometry x="170" y="550" width="60" height="30" as="geometry" />
        </mxCell>
        <mxCell id="PkKohfrWcFwIoGjhmuyU-37" value="" style="rounded=0;whiteSpace=wrap;html=1;fillColor=#0000FF;" vertex="1" parent="1">
          <mxGeometry x="20" y="370" width="80" height="140" as="geometry" />
        </mxCell>
        <mxCell id="PkKohfrWcFwIoGjhmuyU-38" value="" style="rounded=0;whiteSpace=wrap;html=1;fillColor=#FF0000;" vertex="1" parent="1">
          <mxGeometry x="140" y="420" width="60" height="40" as="geometry" />
        </mxCell>
        <mxCell id="PkKohfrWcFwIoGjhmuyU-39" value="" style="rounded=0;whiteSpace=wrap;html=1;fillColor=#0000FF;" vertex="1" parent="1">
          <mxGeometry x="200" y="420" width="60" height="40" as="geometry" />
        </mxCell>
        <mxCell id="PkKohfrWcFwIoGjhmuyU-40" value="" style="rounded=0;whiteSpace=wrap;html=1;fillColor=#FF0000;" vertex="1" parent="1">
          <mxGeometry x="300" y="370" width="80" height="140" as="geometry" />
        </mxCell>
        <mxCell id="PkKohfrWcFwIoGjhmuyU-41" value="S" style="text;html=1;align=center;verticalAlign=middle;whiteSpace=wrap;rounded=0;fontSize=24;fontColor=#FFFFFF;" vertex="1" parent="1">
          <mxGeometry x="50" y="425" width="60" height="30" as="geometry" />
        </mxCell>
        <mxCell id="PkKohfrWcFwIoGjhmuyU-42" value="N" style="text;html=1;align=center;verticalAlign=middle;whiteSpace=wrap;rounded=0;fontSize=24;fontColor=#FFFFFF;" vertex="1" parent="1">
          <mxGeometry x="290" y="425" width="60" height="30" as="geometry" />
        </mxCell>
        <mxCell id="PkKohfrWcFwIoGjhmuyU-43" value="N" style="text;html=1;align=center;verticalAlign=middle;whiteSpace=wrap;rounded=0;fontSize=24;fontColor=#FFFFFF;" vertex="1" parent="1">
          <mxGeometry x="130" y="425" width="60" height="30" as="geometry" />
        </mxCell>
        <mxCell id="PkKohfrWcFwIoGjhmuyU-44" value="S" style="text;html=1;align=center;verticalAlign=middle;whiteSpace=wrap;rounded=0;fontSize=24;fontColor=#FFFFFF;" vertex="1" parent="1">
          <mxGeometry x="220" y="425" width="60" height="30" as="geometry" />
        </mxCell>
      </root>
    </mxGraphModel>
  </diagram>
</mxfile>
